<svg width="75" height="74" viewBox="0 0 75 74" fill="none" xmlns="http://www.w3.org/2000/svg">
<path d="M37.1983 6.14111L37.1159 6.2497C37.097 6.27415 37.0732 6.29406 37.046 6.30798C37.0189 6.3219 36.9892 6.32947 36.959 6.33013C35.6338 6.34823 34.2504 6.51514 32.9272 6.71622C24.4011 8.01524 16.9468 12.7669 12.1107 19.8995C12.0834 19.9402 12.0716 19.9893 12.0775 20.0377C12.0835 20.0861 12.1067 20.1306 12.1429 20.1629C12.2769 20.2822 12.4043 20.2507 12.5249 20.0684C13.1778 19.0804 13.9909 18.0441 14.9641 16.9596C15.5473 16.3101 16.3476 15.7289 17.0172 15.0794C17.0294 15.067 17.045 15.059 17.0608 15.0571C17.0766 15.0553 17.0913 15.0597 17.1017 15.0694L17.1459 15.1116C17.1501 15.1157 17.1534 15.1206 17.1556 15.1261C17.1578 15.1315 17.1588 15.1373 17.1587 15.1432C17.1585 15.1491 17.1571 15.1548 17.1545 15.1601C17.152 15.1654 17.1484 15.1701 17.1439 15.1739L16.8543 15.4092C16.6653 15.5634 16.6861 15.6016 16.9167 15.5238C17.2813 15.4005 17.6218 15.499 17.9382 15.8194C17.9621 15.8441 17.9919 15.8622 18.0246 15.872C18.0573 15.8819 18.092 15.8832 18.1252 15.8757L19.1568 15.6445C19.2046 15.6342 19.2469 15.6062 19.2754 15.5661C19.4846 15.2725 20.4437 14.8984 20.7695 14.7557C20.7949 14.7448 20.8223 14.7392 20.8499 14.7392C20.8776 14.7392 20.9049 14.7448 20.9304 14.7557C21.0403 14.8039 21.0872 14.7738 21.0711 14.6652C21.2628 14.4681 21.4941 14.375 21.7649 14.3857" stroke="#FF7715" stroke-width="0.402174"/>
<path d="M21.7649 14.3857C17.8101 17.1165 14.7851 20.6416 12.6898 24.9609C12.6362 25.0722 12.5866 25.0708 12.541 24.9569C12.5061 24.8711 12.4311 24.8724 12.3158 24.9609C12.2757 24.9932 12.2237 25.0083 12.171 25.0031C12.0222 24.987 11.8975 25.0192 11.797 25.0997C11.6696 25.2015 11.5999 25.1707 11.5878 25.0072C11.561 24.609 11.2849 24.5031 10.7594 24.6894C10.6374 24.7337 10.4906 24.8657 10.319 25.0856C10.2984 25.1124 10.2713 25.1335 10.2403 25.1471C10.2094 25.1606 10.1755 25.1662 10.1418 25.1632C10.1081 25.1601 10.0758 25.1487 10.0477 25.1299C10.0196 25.111 9.99672 25.0854 9.98116 25.0554L9.84241 24.7839" stroke="#FF7715" stroke-width="0.402174"/>
<path d="M9.84245 24.784C9.84245 24.6714 9.80559 24.5909 9.73186 24.5427C9.7124 24.5298 9.6904 24.5214 9.66736 24.5179C9.64432 24.5144 9.6208 24.516 9.59843 24.5225C9.57605 24.529 9.55536 24.5403 9.53777 24.5556C9.52019 24.5709 9.50614 24.5898 9.49658 24.611C7.84164 28.3633 7.00914 32.8556 7.24843 37.004C7.24978 37.0421 7.24073 37.0797 7.22229 37.1126C6.99506 37.5248 7.23033 39.2803 7.28463 39.8172C8.04474 47.5189 11.2393 54.0106 16.8684 59.2925C17.0132 59.4292 17.0675 59.623 17.0313 59.8736" stroke="#FF7715" stroke-width="0.402174"/>
<path d="M11.1576 42.8737C10.8318 42.808 10.748 42.9615 10.9062 43.3342C11.0852 43.7565 11.0329 44.227 11.2058 44.6956C11.5778 45.7131 11.8352 46.6582 12.4606 48.0939C13.5364 50.5633 14.9782 52.7773 16.6874 54.8746C16.7665 54.9711 16.7444 55.0267 16.6211 55.0415C16.4656 55.0603 16.3128 54.8558 16.1626 54.4282C16.1508 54.3939 16.13 54.3634 16.1023 54.3397L15.678 53.9898C15.6351 53.9549 15.6123 53.965 15.6096 54.02C15.6056 54.0743 15.6398 54.1668 15.688 54.213C16.0641 54.581 18.087 56.5617 15.9374 56.057C15.5982 55.9765 15.3878 56.0684 15.306 56.3325C15.2919 56.378 15.2945 56.4271 15.3133 56.4709C15.3321 56.5148 15.3658 56.5505 15.4085 56.5718C15.9099 56.8211 15.9307 57.057 15.4709 57.2796C15.4314 57.2988 15.3869 57.3046 15.3441 57.2963C15.3012 57.2879 15.2624 57.2658 15.2336 57.2333C14.2161 56.0912 13.2971 54.8753 12.4767 53.5856C12.3782 53.4308 12.1831 53.2981 12.0785 53.1251C10.569 50.6397 9.39872 48.0021 8.56756 45.2124C8.54343 45.1292 8.51527 44.9804 8.4831 44.7659C8.42881 44.3819 8.2056 44.0239 8.15332 43.6901C7.84498 41.7463 7.65462 40.4211 7.58223 39.7146C7.36237 37.6046 7.35098 35.4925 7.54804 33.3784C7.55877 33.2577 7.59698 33.0949 7.66266 32.8897C7.77929 32.5278 7.77527 31.9165 7.81147 31.6913C8.19487 29.305 8.87187 27.0026 9.84245 24.7839" stroke="#FF7715" stroke-width="0.402174"/>
<path d="M56.5529 12.8774C56.3699 13.2012 56.1025 13.0886 55.8733 12.8834C55.6212 12.6555 55.2814 12.3968 54.8537 12.1073C51.0432 9.5273 46.6655 7.62301 42.1491 7.00769C41.1155 6.86692 40.0839 6.65578 39.0363 6.75432C38.7929 6.77644 37.148 6.51703 37.0857 6.77845C37.0833 6.78796 37.083 6.79791 37.085 6.80753C37.087 6.81715 37.0911 6.82619 37.0971 6.83395C37.1032 6.84172 37.1109 6.848 37.1197 6.85232C37.1285 6.85664 37.1382 6.85889 37.148 6.85888C37.6829 6.86692 38.242 6.93731 38.7407 6.95138C43.2061 7.08544 47.4196 8.19142 51.381 10.2693C52.686 10.953 54.1962 11.9162 54.9784 12.5336C55.3002 12.7869 55.6434 13.0115 56.008 13.2072C56.0542 13.2317 56.1085 13.2367 56.1588 13.2213L56.2292 13.2012C56.4665 13.1328 56.4852 13.1717 56.2855 13.3178C55.583 13.8339 55.0005 14.4647 54.538 15.21C54.522 15.2361 54.5001 15.2581 54.4742 15.2745C54.4483 15.2908 54.419 15.3011 54.3886 15.3044C54.3581 15.3077 54.3273 15.3039 54.2985 15.2935C54.2697 15.2831 54.2436 15.2662 54.2223 15.2442C53.603 14.6088 52.6619 14.1684 52.1371 13.8185C48.6402 11.4859 44.9261 10.3598 40.6811 9.71834C39.9653 9.60975 39.1629 9.65399 38.4028 9.61176C36.2894 9.49111 34.0211 9.77665 31.9399 10.1326C28.2841 10.758 24.8013 12.2641 21.7649 14.3856" stroke="#FF7715" stroke-width="0.402174"/>
<path d="M50.8903 38.3714C50.6195 38.3634 50.4004 38.4807 50.2328 38.7233C46.0301 44.8069 41.8227 50.8891 37.6106 56.97C37.5919 56.9968 37.567 57.0187 37.538 57.0338C37.509 57.0488 37.4768 57.0566 37.4441 57.0564C37.4115 57.0562 37.3793 57.0481 37.3505 57.0326C37.3217 57.0172 37.2971 56.995 37.2788 56.968C33.0881 50.8871 28.8794 44.8029 24.6525 38.7153C24.5319 38.5404 24.0613 38.2206 24.552 38.2246C24.5822 38.2253 24.6119 38.2327 24.639 38.2463C24.6661 38.2598 24.6899 38.2792 24.7088 38.3031C25.5373 39.3628 26.2391 40.503 27.0475 41.5727C28.7507 43.8189 30.2628 46.2641 31.9118 48.5625" stroke="#FF7715" stroke-width="0.402174"/>
<path d="M31.9117 48.5624C33.4742 50.9755 35.2196 53.2759 36.7398 55.7191C36.9101 55.9913 37.1199 56.2379 37.3692 56.4591C37.3907 56.478 37.4159 56.4922 37.4432 56.5006C37.4705 56.5089 37.4993 56.5114 37.5277 56.5078C37.556 56.5042 37.5833 56.4946 37.6076 56.4796C37.632 56.4646 37.6529 56.4446 37.6689 56.4209L43.239 48.2327" stroke="#FF7715" stroke-width="0.402174"/>
<path d="M43.239 48.2326C45.4322 45.1842 47.5644 42.0995 49.6356 38.9786C49.7214 38.8499 49.8387 38.7353 49.9875 38.6348C50.0787 38.5731 50.1685 38.5074 50.257 38.4377C50.2819 38.4186 50.3019 38.3939 50.3154 38.3656C50.3289 38.3372 50.3356 38.3061 50.3348 38.2748C50.334 38.2434 50.3258 38.2127 50.3109 38.1851C50.296 38.1575 50.2747 38.1338 50.2489 38.116C49.7489 37.7634 49.4111 37.3867 49.2354 36.9858C49.0397 36.5381 48.7555 36.0501 48.3828 35.5219C48.2635 35.353 48.1791 35.1372 48.1295 34.8744C48.1244 34.8466 48.1136 34.8202 48.0976 34.7969C48.0817 34.7737 48.061 34.7542 48.037 34.7397C47.8077 34.603 47.7393 34.3033 47.6167 34.1425C47.0476 33.4005 46.6877 32.572 46.1849 31.8119C45.3665 30.5732 44.6748 29.1334 43.8322 27.8806C43.6767 27.65 43.5266 27.4175 43.3818 27.1829C43.3691 27.1612 43.3521 27.1422 43.3317 27.127C43.3113 27.1118 43.288 27.1007 43.2632 27.0944C43.0487 27.0354 42.9059 26.91 42.8348 26.7183C42.8228 26.6862 42.804 26.6587 42.7785 26.6359L42.0526 26.0105C42.0242 25.9858 41.9896 25.9695 41.9526 25.9634C41.9157 25.9574 41.8778 25.9618 41.8435 25.9763L40.7596 26.4388C40.7259 26.4533 40.6887 26.458 40.6521 26.4523C40.6155 26.4466 40.581 26.4308 40.5525 26.4067C40.1624 26.0789 40.0578 25.542 39.8286 25.2383C39.3956 24.6673 38.9056 24.1451 38.3586 23.6719" stroke="#FF7715" stroke-width="0.402174"/>
<path d="M38.3586 23.672L37.6528 22.9099C37.6165 22.8711 37.5662 22.8482 37.5131 22.8463C37.46 22.8444 37.4083 22.8637 37.3693 22.8998C36.8169 23.4066 36.3578 23.987 35.9918 24.6412" stroke="#FF7715" stroke-width="0.402174"/>
<path d="M35.9918 24.6411C35.7746 24.6921 35.5889 24.8027 35.4348 24.9729C35.4011 25.0092 35.3561 25.0321 35.3081 25.0373L34.6385 25.1137C34.5897 25.1191 34.5446 25.1423 34.5116 25.179C34.4787 25.2156 34.4601 25.2632 34.4595 25.3128L34.4535 25.7753C34.4532 25.802 34.4476 25.8284 34.437 25.853C34.4264 25.8776 34.411 25.8998 34.3917 25.9183C34.3725 25.9369 34.3497 25.9514 34.3247 25.961C34.2997 25.9706 34.2731 25.9751 34.2464 25.9743C33.4554 25.9489 32.759 26.1841 32.1571 26.6802C31.9573 26.8437 31.7234 27.0562 31.4553 27.3176C31.0792 27.6856 30.9264 28.2064 30.5162 28.6126C30.4787 28.6488 30.2789 28.9022 29.9169 29.3727C29.8204 29.4974 29.7856 29.4686 29.8124 29.2862C29.8188 29.2421 29.8401 29.2017 29.8727 29.1716C29.9263 29.1193 29.9257 29.0845 29.8707 29.0671C29.8523 29.0611 29.8354 29.051 29.8214 29.0376C29.8074 29.0241 29.7966 29.0077 29.7898 28.9896C29.7831 28.9714 29.7805 28.9519 29.7823 28.9326C29.7841 28.9133 29.7903 28.8946 29.8003 28.878C32.2603 24.7718 34.7189 20.665 37.1762 16.5574C37.2968 16.3543 37.2627 16.2136 37.14 16.0366" stroke="#FF7715" stroke-width="0.402174"/>
<path d="M35.9918 24.6411C32.5921 30.2689 30.2086 34.2504 28.8412 36.5857C28.5583 37.0683 28.6964 37.321 29.2554 37.3438" stroke="#FF7715" stroke-width="0.402174"/>
<path d="M29.3056 37.394C28.5073 37.567 28.8913 37.9792 29.3116 38.1662C31.5893 39.1877 33.8689 40.2066 36.1506 41.2227C36.6593 41.45 37.0575 41.6309 37.6326 41.4419C38.0106 41.3193 38.3666 41.2288 38.7285 41.0579C41.043 39.9579 43.4138 39.0048 45.7404 37.933C45.7641 37.9223 45.7828 37.9032 45.7929 37.8793C45.8029 37.8554 45.8036 37.8286 45.7947 37.8043L45.7746 37.752C45.7666 37.7296 45.7635 37.7058 45.7656 37.6822C45.7678 37.6585 45.7751 37.6357 45.787 37.6153C45.7989 37.595 45.8151 37.5775 45.8346 37.5643C45.854 37.5511 45.8761 37.5424 45.8993 37.5388C46.343 37.4664 46.3926 37.2211 46.0481 36.8029C45.9536 36.6882 45.9596 36.3544 45.843 36.1654C43.3187 32.0244 40.8238 27.8598 38.3585 23.6719" stroke="#FF7715" stroke-width="0.402174"/>
<path d="M43.2389 48.2326C43.1598 47.6387 42.8863 47.3337 42.4185 47.3176C42.0183 47.3056 41.407 47.3297 41.2642 46.8974C41.2066 46.7244 41.2542 46.581 41.407 46.467C41.4298 46.4499 41.4488 46.4282 41.4627 46.4032C41.4765 46.3783 41.485 46.3507 41.4874 46.3223L41.4955 46.2398C41.5062 46.1044 41.474 46.093 41.399 46.2056C40.6161 47.3599 39.4444 48.994 37.884 51.1081C37.7459 51.2958 37.5897 51.3829 37.4154 51.3695C37.2532 51.3575 37.2492 51.3434 37.4034 51.3273C37.5012 51.3166 37.5341 51.2522 37.5019 51.1343C37.4944 51.1058 37.493 51.0762 37.4978 51.0474C37.5027 51.0186 37.5137 50.9913 37.5301 50.9674L42.7845 43.3964C42.8127 43.354 42.8568 43.3243 42.9071 43.314C43.5184 43.184 43.6672 42.8951 43.3535 42.4473C43.3345 42.4195 43.3087 42.397 43.2784 42.3819C43.2482 42.3668 43.2145 42.3595 43.1806 42.3608C42.7221 42.3796 42.2817 42.4822 41.8595 42.6685C40.5149 43.261 39.061 43.9119 37.4979 44.6211C37.4714 44.6331 37.4426 44.6391 37.4134 44.6388C37.3842 44.6384 37.3554 44.6317 37.329 44.6191C35.9415 43.9608 34.4923 43.2972 32.9815 42.6283C32.5364 42.4299 32.1919 42.3133 31.9479 42.2784C31.8976 42.2706 31.8457 42.2829 31.8031 42.3126C31.2628 42.696 31.3326 42.9527 32.0122 43.0827" stroke="#FF7715" stroke-width="0.402174"/>
<path d="M32.0706 43.2256C31.954 43.1961 31.8387 43.19 31.7248 43.2075C31.6953 43.2123 31.6673 43.2235 31.6426 43.2403C31.618 43.257 31.5973 43.279 31.5822 43.3045C31.567 43.33 31.5577 43.3585 31.5549 43.388C31.552 43.4175 31.5558 43.4471 31.5659 43.4749C31.6624 43.739 31.7951 43.979 31.9641 44.1948C32.2603 44.5715 32.4426 44.8168 32.511 44.9308C32.9232 45.6205 33.4863 46.2439 33.8342 46.9658C33.932 47.1695 34.0426 47.368 34.166 47.561C34.1887 47.5967 34.1969 47.6398 34.1886 47.6811C34.1803 47.7224 34.1564 47.7587 34.1217 47.7822L34.0694 47.8164C34.0307 47.8429 34.0024 47.8821 33.9895 47.9273C33.9767 47.9725 33.9801 48.0208 33.9991 48.0637C34.1653 48.4418 34.1304 48.4645 33.8945 48.1321C33.8759 48.1061 33.8512 48.085 33.8224 48.0706C33.7937 48.0562 33.7618 48.049 33.7296 48.0496H32.5814C32.5495 48.0503 32.519 48.0623 32.4953 48.0833C32.4717 48.1044 32.4566 48.1331 32.4527 48.1643L32.4487 48.2185C32.4464 48.2387 32.4393 48.258 32.4281 48.2749C32.4169 48.2918 32.4019 48.3059 32.3843 48.3159C32.3666 48.3259 32.3469 48.3315 32.3266 48.3324C32.3064 48.3334 32.2862 48.3295 32.2677 48.3211C32.131 48.2594 32.0123 48.3399 31.9118 48.5624" stroke="#FF7715" stroke-width="0.402174"/>
<path d="M37.1983 6.14111L37.1159 6.2497C37.0971 6.27415 37.0732 6.29406 37.0461 6.30798C37.0189 6.3219 36.9892 6.32947 36.9591 6.33013C35.6339 6.34823 34.2504 6.51514 32.9273 6.71622C24.4012 8.01524 16.9469 12.7669 12.1107 19.8995C12.0835 19.9402 12.0717 19.9893 12.0776 20.0377C12.0835 20.0861 12.1067 20.1306 12.1429 20.1629C12.277 20.2822 12.4043 20.2507 12.525 20.0684C13.1778 19.0804 13.9909 18.0441 14.9642 16.9596C15.5473 16.3101 16.3476 15.7289 17.0173 15.0794C17.0294 15.067 17.0451 15.059 17.0609 15.0571C17.0767 15.0553 17.0913 15.0597 17.1017 15.0694L17.146 15.1116C17.1502 15.1157 17.1535 15.1206 17.1557 15.1261C17.1579 15.1315 17.1589 15.1373 17.1587 15.1432C17.1585 15.1491 17.1571 15.1548 17.1546 15.1601C17.152 15.1654 17.1484 15.1701 17.1439 15.1739L16.8544 15.4092C16.6654 15.5634 16.6861 15.6016 16.9167 15.5238C17.2814 15.4005 17.6219 15.499 17.9382 15.8194C17.9622 15.8441 17.9919 15.8622 18.0247 15.872C18.0574 15.8819 18.092 15.8832 18.1253 15.8757L19.1568 15.6445C19.2046 15.6342 19.247 15.6062 19.2755 15.5661C19.4846 15.2725 20.4438 14.8984 20.7695 14.7557C20.795 14.7448 20.8223 14.7392 20.85 14.7392C20.8776 14.7392 20.905 14.7448 20.9304 14.7557C21.0403 14.8039 21.0873 14.7738 21.0712 14.6652C21.2629 14.4681 21.4941 14.375 21.7649 14.3857C17.8102 17.1164 14.7852 20.6415 12.6899 24.9608C12.6362 25.0721 12.5866 25.0708 12.5411 24.9568C12.5062 24.871 12.4311 24.8724 12.3158 24.9608C12.2757 24.9931 12.2238 25.0083 12.1711 25.0031C12.0223 24.987 11.8976 25.0192 11.797 25.0996C11.6697 25.2015 11.6 25.1706 11.5879 25.0071C11.5611 24.6089 11.2849 24.503 10.7594 24.6894C10.6374 24.7336 10.4906 24.8657 10.3191 25.0855C10.2984 25.1123 10.2714 25.1334 10.2404 25.147C10.2094 25.1606 10.1755 25.1661 10.1419 25.1631C10.1082 25.1601 10.0758 25.1486 10.0477 25.1298C10.0197 25.111 9.99679 25.0854 9.98123 25.0554L9.84248 24.7839C9.84248 24.6713 9.80561 24.5908 9.73188 24.5426C9.71243 24.5298 9.69042 24.5213 9.66738 24.5178C9.64434 24.5143 9.62082 24.5159 9.59845 24.5224C9.57608 24.5289 9.55538 24.5402 9.5378 24.5555C9.52021 24.5708 9.50616 24.5897 9.49661 24.6109C7.84166 28.3632 7.00916 32.8555 7.24846 37.0039C7.2498 37.042 7.24076 37.0796 7.22231 37.1125C6.99509 37.5248 7.23036 39.2802 7.28465 39.8171C8.04476 47.5188 11.2394 54.0105 16.8685 59.2924C17.0132 59.4292 17.0675 59.6229 17.0313 59.8736C10.0999 53.8168 6.34759 44.8363 6.63514 35.7431C7.15596 19.2821 20.7635 6.24367 37.1983 6.14111Z" fill="#FF7715"/>
<path d="M37.1984 6.14111C44.455 6.1639 50.9065 8.40937 56.553 12.8775C56.3701 13.2013 56.1026 13.0887 55.8734 12.8836C55.6213 12.6557 55.2815 12.3969 54.8539 12.1074C51.0433 9.52742 46.6656 7.62312 42.1492 7.0078C41.1156 6.86704 40.084 6.6559 39.0364 6.75443C38.793 6.77655 37.1482 6.51715 37.0858 6.77856C37.0834 6.78807 37.0831 6.79802 37.0851 6.80764C37.0871 6.81726 37.0912 6.8263 37.0973 6.83406C37.1033 6.84183 37.111 6.84811 37.1198 6.85243C37.1286 6.85675 37.1383 6.859 37.1482 6.85899C37.683 6.86704 38.2421 6.93742 38.7408 6.95149C43.2062 7.08555 47.4197 8.19153 51.3811 10.2694C52.6861 10.9531 54.1963 11.9163 54.9785 12.5337C55.3003 12.787 55.6435 13.0116 56.0081 13.2073C56.0543 13.2318 56.1086 13.2368 56.1589 13.2214L56.2293 13.2013C56.4666 13.1329 56.4853 13.1718 56.2856 13.3179C55.5831 13.834 55.0007 14.4648 54.5382 15.2101C54.5221 15.2362 54.5002 15.2583 54.4743 15.2746C54.4484 15.291 54.4191 15.3012 54.3887 15.3045C54.3582 15.3078 54.3274 15.3041 54.2986 15.2936C54.2698 15.2832 54.2437 15.2663 54.2224 15.2443C53.6031 14.6089 52.662 14.1685 52.1372 13.8186C48.6403 11.486 44.9262 10.3599 40.6812 9.71845C39.9654 9.60986 39.163 9.6541 38.4029 9.61187C36.2895 9.49122 34.0212 9.77677 31.94 10.1327C28.2842 10.7581 24.8014 12.2642 21.765 14.3857C21.4942 14.375 21.263 14.4681 21.0712 14.6652C21.0873 14.7738 21.0404 14.8039 20.9305 14.7557C20.9051 14.7448 20.8777 14.7392 20.8501 14.7392C20.8224 14.7392 20.795 14.7448 20.7696 14.7557C20.4439 14.8984 19.4847 15.2725 19.2755 15.5661C19.2471 15.6062 19.2047 15.6342 19.1569 15.6445L18.1253 15.8757C18.0921 15.8832 18.0575 15.8819 18.0247 15.872C17.992 15.8622 17.9622 15.8441 17.9383 15.8194C17.6219 15.499 17.2814 15.4005 16.9168 15.5238C16.6862 15.6016 16.6654 15.5634 16.8545 15.4092L17.144 15.1739C17.1485 15.1701 17.1521 15.1654 17.1546 15.1601C17.1572 15.1548 17.1586 15.1491 17.1588 15.1432C17.159 15.1373 17.1579 15.1315 17.1557 15.1261C17.1535 15.1206 17.1502 15.1157 17.146 15.1116L17.1018 15.0694C17.0914 15.0597 17.0768 15.0553 17.061 15.0571C17.0452 15.059 17.0295 15.067 17.0173 15.0794C16.3477 15.7289 15.5474 16.3101 14.9642 16.9596C13.991 18.0441 13.1779 19.0804 12.5251 20.0684C12.4044 20.2507 12.277 20.2822 12.143 20.1629C12.1068 20.1306 12.0836 20.0861 12.0777 20.0377C12.0718 19.9893 12.0835 19.9402 12.1108 19.8995C16.947 12.7669 24.4012 8.01524 32.9273 6.71622C34.2505 6.51514 35.634 6.34823 36.9591 6.33013C36.9893 6.32947 37.019 6.3219 37.0461 6.30798C37.0733 6.29406 37.0972 6.27415 37.116 6.2497L37.1984 6.14111Z" fill="#FF7715"/>
<path d="M56.5529 12.8777C56.6964 12.95 56.803 13.06 56.8727 13.2074C56.8889 13.2418 56.8951 13.2801 56.8904 13.3178C56.8858 13.3555 56.8706 13.3912 56.8465 13.4206L54.6507 16.1031C54.6176 16.1438 54.5696 16.1697 54.5168 16.1749C54.4641 16.1802 54.411 16.1645 54.3691 16.1312C51.1839 13.5774 47.5992 11.832 43.615 10.8949C24.2121 6.33027 7.12576 23.5554 11.1576 42.8738C10.8318 42.8081 10.748 42.9616 10.9062 43.3343C11.0852 43.7566 11.0329 44.2271 11.2058 44.6956C11.5778 45.7131 11.8352 46.6583 12.4606 48.094C13.5364 50.5634 14.9782 52.7773 16.6874 54.8747C16.7665 54.9712 16.7444 55.0268 16.6211 55.0416C16.4656 55.0603 16.3128 54.8559 16.1626 54.4283C16.1508 54.394 16.13 54.3635 16.1023 54.3398L15.678 53.9899C15.6351 53.955 15.6123 53.9651 15.6096 54.0201C15.6056 54.0743 15.6398 54.1668 15.688 54.2131C16.0641 54.5811 18.087 56.5618 15.9374 56.0571C15.5982 55.9766 15.3878 56.0685 15.306 56.3326C15.2919 56.3781 15.2945 56.4272 15.3133 56.471C15.3321 56.5149 15.3658 56.5506 15.4085 56.5718C15.9099 56.8212 15.9307 57.0571 15.4709 57.2797C15.4314 57.2988 15.3869 57.3047 15.3441 57.2964C15.3012 57.288 15.2624 57.2659 15.2336 57.2334C14.2161 56.0912 13.2971 54.8753 12.4767 53.5857C12.3782 53.4309 12.1831 53.2981 12.0785 53.1252C10.569 50.6398 9.39872 48.0022 8.56756 45.2124C8.54343 45.1293 8.51527 44.9805 8.4831 44.766C8.42881 44.382 8.2056 44.024 8.15332 43.6902C7.84498 41.7464 7.65462 40.4212 7.58223 39.7147C7.36237 37.6047 7.35098 35.4926 7.54804 33.3785C7.55877 33.2578 7.59698 33.0949 7.66266 32.8898C7.77929 32.5279 7.77527 31.9166 7.81147 31.6914C8.19487 29.3051 8.87187 27.0027 9.84245 24.784L9.9812 25.0555C9.99676 25.0855 10.0196 25.1111 10.0477 25.1299C10.0758 25.1488 10.1082 25.1602 10.1418 25.1632C10.1755 25.1662 10.2094 25.1607 10.2404 25.1471C10.2713 25.1336 10.2984 25.1124 10.319 25.0856C10.4906 24.8658 10.6374 24.7337 10.7594 24.6895C11.2849 24.5032 11.5611 24.6091 11.5879 25.0072C11.5999 25.1708 11.6697 25.2016 11.797 25.0997C11.8976 25.0193 12.0222 24.9871 12.171 25.0032C12.2237 25.0084 12.2757 24.9932 12.3158 24.961C12.4311 24.8725 12.5062 24.8712 12.541 24.957C12.5866 25.0709 12.6362 25.0722 12.6898 24.961C14.7852 20.6416 17.8102 17.1166 21.7649 14.3858C24.8013 12.2643 28.2841 10.7582 31.9399 10.1328C34.0211 9.7769 36.2894 9.49135 38.4028 9.61201C39.1629 9.65423 39.9653 9.61 40.6811 9.71858C44.9261 10.36 48.6402 11.4861 52.1371 13.8187C52.6619 14.1686 53.603 14.609 54.2223 15.2445C54.2436 15.2665 54.2697 15.2833 54.2985 15.2938C54.3273 15.3042 54.3581 15.3079 54.3886 15.3046C54.419 15.3013 54.4483 15.2911 54.4742 15.2747C54.5001 15.2584 54.522 15.2363 54.538 15.2103C55.0005 14.4649 55.583 13.8342 56.2855 13.318C56.4852 13.1719 56.4665 13.133 56.2292 13.2014L56.1588 13.2215C56.1085 13.237 56.0542 13.2319 56.008 13.2074C55.6434 13.0117 55.3002 12.7872 54.9784 12.5338C54.1962 11.9165 52.686 10.9533 51.381 10.2696C47.4196 8.19166 43.2061 7.08568 38.7407 6.95163C38.242 6.93755 37.6829 6.86717 37.148 6.85913C37.1382 6.85913 37.1285 6.85689 37.1197 6.85256C37.1109 6.84824 37.1032 6.84196 37.0971 6.8342C37.0911 6.82643 37.087 6.81739 37.085 6.80777C37.083 6.79815 37.0833 6.7882 37.0857 6.77869C37.148 6.51728 38.7929 6.77668 39.0363 6.75456C40.0839 6.65603 41.1155 6.86717 42.1491 7.00793C46.6655 7.62326 51.0432 9.52755 54.8537 12.1075C55.2814 12.3971 55.6212 12.6558 55.8733 12.8837C56.1025 13.0888 56.3699 13.2014 56.5529 12.8777Z" fill="#FF7715"/>
<path d="M50.8903 38.3715C50.6195 38.3635 50.4004 38.4808 50.2328 38.7234C46.0301 44.8069 41.8227 50.8892 37.6106 56.97C37.5919 56.9969 37.567 57.0188 37.538 57.0338C37.509 57.0489 37.4768 57.0567 37.4441 57.0565C37.4115 57.0563 37.3793 57.0481 37.3505 57.0327C37.3217 57.0173 37.2971 56.9951 37.2788 56.968C33.0881 50.8871 28.8794 44.8029 24.6525 38.7154C24.5319 38.5404 24.0613 38.2207 24.552 38.2247C24.5822 38.2254 24.6119 38.2328 24.639 38.2463C24.6661 38.2599 24.6899 38.2793 24.7088 38.3031C25.5373 39.3629 26.2391 40.503 27.0475 41.5728C28.7507 43.8189 30.2628 46.2642 31.9118 48.5626C33.4742 50.9756 35.2196 53.2761 36.7399 55.7193C36.9101 55.9914 37.1199 56.2381 37.3693 56.4593C37.3907 56.4782 37.4159 56.4923 37.4432 56.5007C37.4706 56.5091 37.4994 56.5115 37.5277 56.5079C37.5561 56.5043 37.5833 56.4947 37.6077 56.4797C37.632 56.4647 37.6529 56.4447 37.6689 56.4211L43.239 48.2328C45.4322 45.1843 47.5644 42.0996 49.6356 38.9788C49.7214 38.8501 49.8387 38.7355 49.9875 38.6349C50.0786 38.5733 50.1684 38.5076 50.2569 38.4379C50.2818 38.4187 50.3018 38.394 50.3154 38.3657C50.3289 38.3374 50.3355 38.3063 50.3347 38.2749C50.334 38.2436 50.3258 38.2128 50.3108 38.1852C50.2959 38.1576 50.2747 38.1339 50.2489 38.1161C49.7488 37.7635 49.411 37.3868 49.2354 36.986C49.0397 36.5382 48.7555 36.0503 48.3828 35.5221C48.2635 35.3532 48.179 35.1373 48.1294 34.8746C48.1244 34.8467 48.1136 34.8203 48.0976 34.7971C48.0817 34.7739 48.061 34.7543 48.0369 34.7399C47.8077 34.6031 47.7393 34.3035 47.6166 34.1426C47.0476 33.4006 46.6876 32.5721 46.1849 31.812C45.3665 30.5733 44.6747 29.1336 43.8322 27.8808C43.6767 27.6502 43.5265 27.4176 43.3818 27.183C43.3691 27.1613 43.352 27.1424 43.3317 27.1272C43.3113 27.112 43.288 27.1009 43.2631 27.0945C43.0486 27.0356 42.9058 26.9102 42.8348 26.7185C42.8227 26.6863 42.804 26.6588 42.7785 26.6361L42.0526 26.0107C42.0242 25.9859 41.9896 25.9696 41.9526 25.9636C41.9156 25.9575 41.8778 25.962 41.8434 25.9765L40.7596 26.439C40.7259 26.4535 40.6886 26.4581 40.652 26.4525C40.6154 26.4468 40.581 26.431 40.5525 26.4068C40.1623 26.079 40.0578 25.5421 39.8285 25.2385C39.3955 24.6674 38.9056 24.1453 38.3586 23.672L37.6528 22.9099C37.6165 22.8711 37.5662 22.8482 37.5131 22.8464C37.46 22.8445 37.4082 22.8637 37.3693 22.8999C36.8169 23.4066 36.3578 23.9871 35.9918 24.6413C35.7746 24.6922 35.589 24.8028 35.4348 24.9731C35.4011 25.0094 35.3561 25.0322 35.3081 25.0374L34.6385 25.1138C34.5897 25.1192 34.5446 25.1424 34.5117 25.1791C34.4787 25.2158 34.4602 25.2634 34.4595 25.3129L34.4535 25.7754C34.4532 25.8022 34.4476 25.8286 34.437 25.8532C34.4264 25.8777 34.4111 25.8999 34.3918 25.9185C34.3725 25.937 34.3497 25.9515 34.3247 25.9611C34.2997 25.9707 34.2731 25.9753 34.2464 25.9745C33.4554 25.949 32.759 26.1843 32.1571 26.6803C31.9573 26.8438 31.7234 27.0563 31.4553 27.3177C31.0793 27.6857 30.9264 28.2065 30.5162 28.6127C30.4787 28.6489 30.2789 28.9023 29.917 29.3729C29.8204 29.4975 29.7856 29.4687 29.8124 29.2864C29.8189 29.2423 29.8402 29.2018 29.8727 29.1718C29.9264 29.1195 29.9257 29.0846 29.8707 29.0672C29.8523 29.0612 29.8354 29.0511 29.8214 29.0377C29.8074 29.0243 29.7966 29.0079 29.7898 28.9897C29.7831 28.9715 29.7805 28.952 29.7823 28.9327C29.7841 28.9134 29.7903 28.8948 29.8003 28.8782C32.2603 24.772 34.7189 20.6651 37.1762 16.5576C37.2969 16.3545 37.2627 16.2137 37.14 16.0368C37.2674 15.8719 37.4081 15.9181 37.5623 16.1755C41.9902 23.5581 46.4329 30.9567 50.8903 38.3715Z" fill="#FF7715"/>
<path d="M58.9238 16.5876C59.1356 16.3785 59.3602 16.1741 59.5974 15.9743C59.6366 15.9415 59.6867 15.9247 59.7375 15.9273C59.7883 15.9299 59.836 15.9517 59.8709 15.9884C60.8053 16.9549 61.6626 17.9865 62.4428 19.0831C62.4739 19.127 62.4864 19.1812 62.4778 19.234C62.4691 19.2868 62.4399 19.3337 62.3966 19.3646L59.5814 21.3815C59.5399 21.4109 59.4889 21.4235 59.4385 21.4168C59.3881 21.4101 59.3422 21.3846 59.3099 21.3453L57.0497 18.5965C57.0174 18.5576 57.0011 18.508 57.0041 18.4576C57.0071 18.4072 57.0291 18.3598 57.0658 18.325C57.4116 17.9912 57.7709 17.6601 58.1436 17.3316C58.3286 17.1694 58.5887 16.9214 58.9238 16.5876Z" fill="#FF7715"/>
<path d="M37.14 16.0366C37.2627 16.2136 37.2969 16.3543 37.1762 16.5574C34.7189 20.665 32.2603 24.7718 29.8003 28.878C29.7903 28.8946 29.7841 28.9133 29.7823 28.9326C29.7805 28.9519 29.7831 28.9714 29.7899 28.9896C29.7966 29.0077 29.8074 29.0241 29.8214 29.0376C29.8354 29.051 29.8523 29.0611 29.8707 29.0671C29.9257 29.0845 29.9264 29.1193 29.8727 29.1716C29.8402 29.2017 29.8189 29.2421 29.8124 29.2862C29.7856 29.4686 29.8205 29.4974 29.917 29.3727C30.2789 28.9022 30.4787 28.6488 30.5162 28.6126C30.9264 28.2064 31.0793 27.6856 31.4553 27.3176C31.7234 27.0562 31.9573 26.8437 32.1571 26.6802C32.759 26.1841 33.4554 25.9489 34.2464 25.9743C34.2731 25.9751 34.2998 25.9706 34.3247 25.961C34.3497 25.9514 34.3725 25.9369 34.3918 25.9183C34.4111 25.8998 34.4265 25.8776 34.4371 25.853C34.4477 25.8284 34.4532 25.802 34.4535 25.7753L34.4595 25.3128C34.4602 25.2632 34.4787 25.2156 34.5117 25.179C34.5446 25.1423 34.5897 25.1191 34.6385 25.1137L35.3081 25.0373C35.3561 25.0321 35.4011 25.0092 35.4348 24.9729C35.589 24.8027 35.7746 24.6921 35.9918 24.6411C32.5921 30.2689 30.2086 34.2504 28.8412 36.5857C28.5583 37.0683 28.6964 37.321 29.2554 37.3438L29.3057 37.3941C28.5074 37.567 28.8914 37.9792 29.3117 38.1662C31.5894 39.1878 33.869 40.2066 36.1507 41.2228C36.6594 41.45 37.0576 41.631 37.6327 41.4419C38.0107 41.3193 38.3667 41.2288 38.7286 41.0579C41.0431 39.9579 43.4139 39.0048 45.7405 37.933C45.7641 37.9224 45.7829 37.9032 45.793 37.8793C45.803 37.8554 45.8037 37.8286 45.7948 37.8043L45.7747 37.752C45.7666 37.7297 45.7636 37.7058 45.7657 37.6822C45.7679 37.6586 45.7751 37.6357 45.7871 37.6153C45.799 37.595 45.8152 37.5775 45.8347 37.5643C45.8541 37.5511 45.8762 37.5424 45.8994 37.5388C46.3431 37.4665 46.3927 37.2211 46.0482 36.8029C45.9537 36.6883 45.9597 36.3544 45.8431 36.1654C43.3188 32.0244 40.8239 27.8599 38.3586 23.6719C38.9056 24.1451 39.3955 24.6673 39.8286 25.2384C40.0578 25.542 40.1624 26.0789 40.5525 26.4067C40.581 26.4308 40.6155 26.4466 40.652 26.4523C40.6886 26.458 40.7259 26.4533 40.7596 26.4388L41.8434 25.9763C41.8778 25.9619 41.9156 25.9574 41.9526 25.9634C41.9896 25.9695 42.0242 25.9858 42.0526 26.0105L42.7785 26.6359C42.804 26.6587 42.8227 26.6862 42.8348 26.7184C42.9059 26.9101 43.0486 27.0354 43.2631 27.0944C43.288 27.1007 43.3113 27.1118 43.3317 27.127C43.352 27.1422 43.3691 27.1612 43.3818 27.1829C43.5265 27.4175 43.6767 27.6501 43.8322 27.8806C44.6748 29.1334 45.3665 30.5732 46.1849 31.8119C46.6876 32.572 47.0476 33.4005 47.6167 34.1425C47.7393 34.3034 47.8077 34.603 48.0369 34.7397C48.061 34.7542 48.0817 34.7737 48.0976 34.797C48.1136 34.8202 48.1244 34.8466 48.1294 34.8744C48.179 35.1372 48.2635 35.353 48.3828 35.5219C48.7555 36.0501 49.0397 36.5381 49.2354 36.9859C49.411 37.3867 49.7488 37.7634 50.2489 38.116C50.2747 38.1338 50.2959 38.1575 50.3109 38.1851C50.3258 38.2127 50.334 38.2434 50.3348 38.2748C50.3355 38.3062 50.3289 38.3373 50.3154 38.3656C50.3018 38.3939 50.2818 38.4186 50.2569 38.4377C50.1684 38.5074 50.0786 38.5731 49.9875 38.6348C49.8387 38.7353 49.7214 38.8499 49.6356 38.9786C47.5644 42.0995 45.4322 45.1842 43.239 48.2327C43.1599 47.6388 42.8864 47.3338 42.4186 47.3177C42.0184 47.3056 41.4071 47.3298 41.2643 46.8974C41.2067 46.7245 41.2543 46.5811 41.4071 46.4671C41.4299 46.45 41.4489 46.4282 41.4627 46.4033C41.4766 46.3783 41.485 46.3508 41.4875 46.3223L41.4956 46.2399C41.5063 46.1045 41.4741 46.0931 41.399 46.2057C40.6161 47.3599 39.4445 48.9941 37.884 51.1082C37.746 51.2959 37.5898 51.383 37.4155 51.3696C37.2533 51.3575 37.2493 51.3435 37.4034 51.3274C37.5013 51.3167 37.5342 51.2523 37.502 51.1343C37.4944 51.1059 37.493 51.0763 37.4979 51.0475C37.5028 51.0187 37.5138 50.9914 37.5301 50.9674L42.7845 43.3965C42.8128 43.354 42.8569 43.3244 42.9072 43.3141C43.5185 43.184 43.6673 42.8951 43.3536 42.4474C43.3346 42.4196 43.3087 42.3971 43.2785 42.382C43.2483 42.3669 43.2146 42.3596 43.1807 42.3609C42.7222 42.3797 42.2818 42.4822 41.8595 42.6686C40.5149 43.2611 39.0611 43.912 37.498 44.6211C37.4715 44.6331 37.4426 44.6392 37.4135 44.6388C37.3843 44.6385 37.3555 44.6318 37.329 44.6191C35.9415 43.9609 34.4924 43.2973 32.9815 42.6284C32.5365 42.43 32.1919 42.3133 31.948 42.2785C31.8977 42.2707 31.8458 42.2829 31.8032 42.3127C31.2629 42.6961 31.3326 42.9528 32.0123 43.0828L32.0706 43.2256C31.954 43.1961 31.8387 43.1901 31.7247 43.2075C31.6953 43.2123 31.6672 43.2235 31.6426 43.2403C31.6179 43.2571 31.5973 43.279 31.5821 43.3045C31.567 43.3301 31.5576 43.3586 31.5548 43.388C31.552 43.4175 31.5558 43.4472 31.5659 43.4749C31.6624 43.739 31.7951 43.979 31.964 44.1948C32.2603 44.5715 32.4426 44.8169 32.511 44.9308C32.9232 45.6205 33.4863 46.2439 33.8342 46.9658C33.932 47.1696 34.0426 47.368 34.1659 47.561C34.1887 47.5968 34.1968 47.6399 34.1886 47.6812C34.1803 47.7225 34.1563 47.7587 34.1217 47.7822L34.0694 47.8164C34.0307 47.8429 34.0024 47.8822 33.9895 47.9274C33.9767 47.9725 33.98 48.0208 33.999 48.0637C34.1653 48.4418 34.1304 48.4646 33.8945 48.1321C33.8759 48.1061 33.8511 48.085 33.8224 48.0706C33.7937 48.0563 33.7618 48.0491 33.7296 48.0497H32.5814C32.5495 48.0503 32.519 48.0623 32.4953 48.0833C32.4717 48.1044 32.4566 48.1331 32.4527 48.1643L32.4487 48.2186C32.4464 48.2387 32.4393 48.258 32.4281 48.2749C32.4169 48.2919 32.4019 48.3059 32.3843 48.3159C32.3666 48.3259 32.3469 48.3316 32.3266 48.3325C32.3063 48.3334 32.2862 48.3295 32.2677 48.3211C32.1309 48.2595 32.0123 48.3399 31.9118 48.5624C30.2628 46.264 28.7507 43.8188 27.0475 41.5727C26.2391 40.5029 25.5373 39.3627 24.7088 38.303C24.6899 38.2791 24.6661 38.2597 24.639 38.2462C24.6119 38.2326 24.5822 38.2252 24.552 38.2246C24.0613 38.2205 24.5319 38.5403 24.6525 38.7152C28.8794 44.8028 33.0881 50.887 37.2788 56.9679C37.2971 56.9949 37.3217 57.0171 37.3505 57.0326C37.3793 57.048 37.4115 57.0561 37.4441 57.0563C37.4768 57.0565 37.509 57.0488 37.538 57.0337C37.567 57.0186 37.5919 56.9967 37.6106 56.9699C41.8227 50.889 46.0301 44.8068 50.2328 38.7233C50.4004 38.4806 50.6195 38.3633 50.8903 38.3714L37.6126 57.6073C37.5937 57.6341 37.5687 57.6559 37.5396 57.671C37.5106 57.6861 37.4784 57.694 37.4458 57.694C37.4132 57.694 37.3812 57.6861 37.3525 57.671C37.3237 57.6559 37.2991 57.6341 37.2808 57.6073L23.9085 38.2949C23.8864 38.2633 23.8741 38.2258 23.873 38.1869C23.8719 38.148 23.8822 38.1094 23.9025 38.0758L37.14 16.0366Z" fill="#FF7715"/>
<path d="M64.4135 22.5379C64.4378 22.525 64.4644 22.5172 64.4918 22.515C64.5192 22.5129 64.5467 22.5163 64.5727 22.5251C64.5987 22.534 64.6226 22.5481 64.643 22.5665C64.6633 22.585 64.6797 22.6074 64.691 22.6324L66.3319 26.2681C66.3431 26.2931 66.3491 26.3203 66.3494 26.3478C66.3497 26.3753 66.3443 26.4026 66.3335 26.428C66.3228 26.4535 66.3069 26.4765 66.2869 26.4957C66.2669 26.5149 66.2432 26.5298 66.2173 26.5396L62.8732 27.7742C62.825 27.7916 62.7721 27.7902 62.7251 27.7704C62.6781 27.7507 62.6405 27.714 62.6198 27.6676L61.18 24.4543C61.1594 24.4076 61.1573 24.3549 61.1741 24.3067C61.1909 24.2586 61.2253 24.2186 61.2705 24.1949L64.4135 22.5379Z" fill="#FF7715"/>
<path d="M38.3586 23.672C40.8239 27.86 43.3188 32.0245 45.8431 36.1655C45.9597 36.3545 45.9537 36.6883 46.0482 36.803C46.3927 37.2212 46.3431 37.4666 45.8994 37.5389C45.8762 37.5425 45.8541 37.5512 45.8347 37.5644C45.8152 37.5776 45.799 37.5951 45.7871 37.6154C45.7751 37.6358 45.7679 37.6586 45.7657 37.6823C45.7636 37.7059 45.7666 37.7297 45.7747 37.7521L45.7948 37.8044C45.8037 37.8287 45.803 37.8555 45.793 37.8794C45.7829 37.9033 45.7641 37.9225 45.7405 37.9331C43.4139 39.0049 41.0431 39.958 38.7286 41.058C38.3667 41.2289 38.0107 41.3194 37.6327 41.442C37.0576 41.6311 36.6594 41.4501 36.1507 41.2229C33.869 40.2067 31.5894 39.1879 29.3117 38.1663C28.8914 37.9793 28.5074 37.5671 29.3057 37.3942L37.1823 40.9051C37.2075 40.9166 37.2351 40.9225 37.2632 40.9225C37.2912 40.9225 37.3192 40.9166 37.3451 40.9051L45.4047 37.3258C45.4307 37.3142 45.454 37.2972 45.473 37.2759C45.492 37.2547 45.5062 37.2296 45.5148 37.2024C45.5233 37.1752 45.526 37.1465 45.5226 37.1182C45.5193 37.0899 45.5099 37.0627 45.4952 37.0382L37.6065 23.8972C37.5891 23.8674 37.5642 23.8427 37.5342 23.8256C37.5043 23.8085 37.4703 23.7995 37.4356 23.7995C37.4009 23.7995 37.3668 23.8085 37.3364 23.8256C37.3061 23.8427 37.2807 23.8674 37.2627 23.8972L29.2775 37.2051C29.263 37.2301 29.2554 37.2593 29.2554 37.2896V37.3439C28.6964 37.3211 28.5583 37.0684 28.8412 36.5858C30.2086 34.2505 32.5921 30.269 35.9918 24.6412C36.3578 23.987 36.8169 23.4066 37.3693 22.8998C37.4083 22.8637 37.46 22.8444 37.5131 22.8463C37.5662 22.8482 37.6165 22.8711 37.6528 22.9099L38.3586 23.672Z" fill="#FF7715"/>
<path d="M9.84245 24.784C8.87187 27.0026 8.19488 29.3051 7.81148 31.6913C7.77528 31.9165 7.7793 32.5278 7.66267 32.8898C7.59698 33.0949 7.55878 33.2578 7.54805 33.3784C7.35099 35.4925 7.36238 37.6046 7.58224 39.7147C7.65463 40.4212 7.84499 41.7463 8.15332 43.6902C8.20561 44.024 8.42881 44.3819 8.48311 44.766C8.51528 44.9805 8.54343 45.1293 8.56756 45.2124C9.39872 48.0021 10.569 50.6397 12.0785 53.1252C12.1831 53.2981 12.3782 53.4308 12.4767 53.5857C13.2971 54.8753 14.2161 56.0912 15.2336 57.2334C15.2624 57.2659 15.3012 57.288 15.3441 57.2963C15.3869 57.3047 15.4314 57.2988 15.4709 57.2796C15.9307 57.0571 15.9099 56.8211 15.4085 56.5718C15.3658 56.5506 15.3321 56.5148 15.3133 56.471C15.2945 56.4272 15.2919 56.3781 15.306 56.3325C15.3878 56.0684 15.5982 55.9766 15.9374 56.057C18.087 56.5617 16.0641 54.581 15.6881 54.2131C15.6398 54.1668 15.6056 54.0743 15.6096 54.02C15.6123 53.965 15.6351 53.955 15.678 53.9898L16.1023 54.3397C16.13 54.3634 16.1508 54.394 16.1626 54.4282C16.3128 54.8559 16.4656 55.0603 16.6211 55.0415C16.7444 55.0268 16.7665 54.9712 16.6875 54.8746C14.9782 52.7773 13.5364 50.5633 12.4606 48.094C11.8352 46.6582 11.5778 45.7131 11.2058 44.6956C11.0329 44.2271 11.0852 43.7565 10.9062 43.3342C10.748 42.9616 10.8318 42.8081 11.1576 42.8738C15.7061 62.6346 39.2434 70.4528 54.713 57.354C59.3581 53.4208 62.5031 47.9834 63.6855 42.0252C64.3893 38.4834 64.3531 34.8799 63.5769 31.2147C63.5655 31.1627 63.5752 31.1084 63.6039 31.0635C63.6325 31.0187 63.6778 30.987 63.7297 30.9754L67.2729 30.1872C67.2991 30.1815 67.3261 30.1809 67.3525 30.1855C67.3788 30.1901 67.404 30.1997 67.4264 30.2139C67.4488 30.2282 67.4681 30.2466 67.4832 30.2682C67.4983 30.2899 67.5088 30.3143 67.5142 30.34C71.357 48.0296 59.531 64.9792 41.6705 67.4687C32.7161 68.7154 23.7476 65.862 17.0313 59.8736C17.0675 59.623 17.0132 59.4292 16.8684 59.2925C11.2393 54.0106 8.04474 47.5189 7.28463 39.8172C7.23033 39.2803 6.99506 37.5248 7.22229 37.1126C7.24073 37.0797 7.24978 37.0421 7.24843 37.004C7.00914 32.8556 7.84164 28.3633 9.49658 24.611C9.50614 24.5898 9.52019 24.5709 9.53777 24.5556C9.55536 24.5403 9.57605 24.529 9.59843 24.5225C9.6208 24.516 9.64432 24.5144 9.66736 24.5179C9.6904 24.5214 9.7124 24.5298 9.73186 24.5427C9.80559 24.5909 9.84245 24.6714 9.84245 24.784Z" fill="#FF7715"/>
<path d="M43.239 48.2328L37.6689 56.4211C37.6529 56.4448 37.632 56.4648 37.6077 56.4797C37.5834 56.4947 37.5561 56.5043 37.5278 56.508C37.4994 56.5116 37.4706 56.5091 37.4433 56.5007C37.416 56.4923 37.3907 56.4782 37.3693 56.4593C37.12 56.2381 36.9102 55.9914 36.7399 55.7193C35.2197 53.2761 33.4743 50.9757 31.9118 48.5626C32.0124 48.3401 32.131 48.2596 32.2677 48.3213C32.2862 48.3297 32.3064 48.3336 32.3266 48.3327C32.3469 48.3317 32.3667 48.3261 32.3843 48.3161C32.4019 48.3061 32.417 48.292 32.4282 48.2751C32.4394 48.2582 32.4464 48.2389 32.4487 48.2188L32.4527 48.1645C32.4566 48.1333 32.4717 48.1046 32.4954 48.0835C32.519 48.0625 32.5495 48.0505 32.5814 48.0498H33.7296C33.7619 48.0493 33.7937 48.0565 33.8225 48.0708C33.8512 48.0852 33.8759 48.1063 33.8945 48.1323C34.1305 48.4647 34.1653 48.442 33.9991 48.0639C33.9801 48.021 33.9767 47.9727 33.9896 47.9275C34.0024 47.8823 34.0307 47.8431 34.0695 47.8166L34.1218 47.7824C34.1564 47.7589 34.1804 47.7226 34.1886 47.6813C34.1969 47.64 34.1888 47.5969 34.166 47.5612C34.0427 47.3682 33.9321 47.1697 33.8342 46.966C33.4863 46.2441 32.9233 45.6207 32.511 44.931C32.4427 44.817 32.2604 44.5717 31.9641 44.195C31.7952 43.9792 31.6625 43.7392 31.5659 43.4751C31.5559 43.4473 31.5521 43.4177 31.5549 43.3882C31.5577 43.3587 31.567 43.3302 31.5822 43.3047C31.5973 43.2792 31.618 43.2572 31.6426 43.2405C31.6673 43.2237 31.6953 43.2125 31.7248 43.2077C31.8387 43.1902 31.954 43.1963 32.0707 43.2258L37.126 50.5051C37.1443 50.5318 37.1688 50.5535 37.1975 50.5684C37.2261 50.5834 37.2581 50.5911 37.2905 50.5909C37.323 50.5907 37.355 50.5826 37.3838 50.5673C37.4126 50.552 37.4373 50.53 37.4558 50.5031L42.2276 43.6038C42.4447 43.2888 42.3791 43.209 42.0305 43.3645L37.5664 45.3533C37.5411 45.3647 37.5135 45.3706 37.4855 45.3706C37.4574 45.3706 37.4295 45.3647 37.4035 45.3533L32.1109 42.9845C32.0995 42.9796 32.087 42.978 32.075 42.9798C32.0629 42.9815 32.0516 42.9867 32.0425 42.9945C32.0144 43.0186 32.0043 43.0481 32.0124 43.083C31.3327 42.953 31.263 42.6962 31.8032 42.3128C31.8459 42.2831 31.8977 42.2709 31.948 42.2786C32.192 42.3135 32.5365 42.4301 32.9816 42.6285C34.4924 43.2975 35.9416 43.9611 37.3291 44.6193C37.3555 44.6319 37.3843 44.6387 37.4135 44.639C37.4427 44.6393 37.4715 44.6333 37.498 44.6213C39.0611 43.9121 40.515 43.2613 41.8596 42.6688C42.2819 42.4824 42.7222 42.3799 43.1807 42.3611C43.2146 42.3598 43.2483 42.367 43.2785 42.3822C43.3088 42.3973 43.3346 42.4198 43.3537 42.4476C43.6673 42.8953 43.5185 43.1842 42.9072 43.3142C42.8569 43.3246 42.8128 43.3542 42.7846 43.3967L37.5302 50.9676C37.5138 50.9915 37.5028 51.0188 37.4979 51.0476C37.4931 51.0764 37.4945 51.1061 37.502 51.1345C37.5342 51.2525 37.5014 51.3168 37.4035 51.3276C37.2493 51.3436 37.2533 51.3577 37.4156 51.3698C37.5898 51.3832 37.746 51.2961 37.8841 51.1084C39.4445 48.9943 40.6162 47.3601 41.3991 46.2059C41.4742 46.0933 41.5063 46.1047 41.4956 46.2401L41.4876 46.3225C41.4851 46.3509 41.4766 46.3785 41.4628 46.4035C41.4489 46.4284 41.43 46.4502 41.4071 46.4673C41.2543 46.5812 41.2067 46.7247 41.2644 46.8976C41.4071 47.3299 42.0184 47.3058 42.4186 47.3179C42.8865 47.334 43.1599 47.639 43.239 48.2328Z" fill="#FF7715"/>
</svg>
