<svg width="453" height="885" viewBox="0 0 453 885" fill="none" xmlns="http://www.w3.org/2000/svg">
<g opacity="0.5">
<path opacity="0.0344828" d="M-299.952 678.331C-295.831 683.242 -289.611 686.297 -281.407 687.527C-273.195 688.759 -263.059 688.151 -251.225 685.785C-227.559 681.055 -197.314 669.341 -162.53 651.646C-92.9771 616.262 -5.47895 557.067 83.4587 482.44C172.396 407.812 245.886 331.922 292.81 269.57C316.276 238.388 333.065 210.636 341.832 188.151C346.217 176.908 348.576 167.031 348.789 158.73C349.001 150.437 347.073 143.781 342.952 138.87C338.831 133.959 332.611 130.904 324.407 129.673C316.195 128.442 306.059 129.05 294.226 131.415C270.56 136.145 240.314 147.859 205.53 165.555C135.977 200.938 48.4793 260.133 -40.4584 334.761C-129.396 409.388 -202.886 485.278 -249.809 547.63C-273.276 578.813 -290.064 606.565 -298.832 629.05C-303.216 640.293 -305.575 650.169 -305.788 658.47C-306.001 666.763 -304.073 673.419 -299.952 678.331Z" stroke="#2B2C3B" stroke-width="2"/>
<path opacity="0.0689655" d="M-275.22 708.678C-270.687 713.211 -264.224 715.712 -255.944 716.223C-247.656 716.734 -237.612 715.245 -226.029 711.857C-202.866 705.082 -173.756 690.777 -140.647 670.117C-74.4427 628.806 7.56329 562.211 89.6583 480.116C171.753 398.021 238.349 316.015 279.66 249.81C300.32 216.701 314.625 187.591 321.4 164.428C324.787 152.846 326.277 142.801 325.765 134.513C325.255 126.233 322.754 119.77 318.22 115.237C313.687 110.703 307.224 108.203 298.944 107.692C290.656 107.18 280.612 108.67 269.029 112.057C245.866 118.832 216.756 133.138 183.647 153.797C117.443 195.108 35.4367 261.704 -46.6584 343.799C-128.753 425.894 -195.349 507.9 -236.66 574.104C-257.32 607.214 -271.625 636.323 -278.4 659.487C-281.788 671.069 -283.277 681.114 -282.766 689.402C-282.255 697.681 -279.754 704.144 -275.22 708.678Z" stroke="#2B2C3B" stroke-width="2"/>
<path opacity="0.103448" d="M-248.23 736.768C-243.319 740.889 -236.663 742.817 -228.37 742.604C-220.069 742.391 -210.192 740.032 -198.949 735.648C-176.464 726.88 -148.713 710.092 -117.53 686.625C-55.1779 639.702 20.7119 566.212 95.3394 477.274C169.967 388.337 229.162 300.839 264.545 231.286C282.241 196.502 293.955 166.256 298.685 142.59C301.05 130.757 301.659 120.621 300.427 112.409C299.196 104.205 296.142 97.9847 291.23 93.8637C286.319 89.7427 279.663 87.8145 271.37 88.0273C263.069 88.2403 253.192 90.5994 241.949 94.9835C219.465 103.751 191.713 120.54 160.53 144.006C98.178 190.93 22.2883 264.42 -52.3393 353.357C-126.967 442.295 -186.162 529.793 -221.545 599.346C-239.241 634.13 -250.955 664.375 -255.685 688.041C-258.05 699.875 -258.658 710.011 -257.427 718.223C-256.196 726.427 -253.142 732.647 -248.23 736.768Z" stroke="#2B2C3B" stroke-width="2"/>
<path opacity="0.137931" d="M-219.188 762.412C-213.936 766.089 -207.137 767.43 -198.894 766.495C-190.644 765.559 -181.01 762.348 -170.192 757.001C-148.557 746.307 -122.374 727.164 -93.3549 701.069C-35.3298 648.889 33.8661 569.065 100.458 473.962C167.05 378.858 218.394 286.534 247.581 214.162C262.178 177.968 271.211 146.816 273.861 122.828C275.185 110.834 274.908 100.683 272.965 92.6097C271.024 84.5445 267.439 78.6141 262.187 74.9368C256.936 71.2596 250.137 69.9188 241.894 70.8536C233.643 71.7893 224.01 75.0002 213.192 80.3476C191.556 91.0418 165.373 110.185 136.355 136.28C78.3295 188.459 9.13359 268.284 -57.4586 363.387C-124.051 458.49 -175.395 550.815 -204.581 623.187C-219.178 659.381 -228.211 690.532 -230.861 714.52C-232.186 726.515 -231.908 736.666 -229.965 744.739C-228.025 752.804 -224.439 758.734 -219.188 762.412Z" stroke="#2B2C3B" stroke-width="2"/>
<path opacity="0.172414" d="M-188.313 785.439C-182.761 788.644 -175.871 789.387 -167.741 787.738C-159.603 786.087 -150.286 782.048 -139.975 775.779C-119.354 763.239 -94.9394 741.887 -68.3055 713.362C-15.0489 656.324 46.9266 570.773 104.977 470.227C163.026 369.682 206.128 273.234 228.896 198.593C240.283 161.265 246.567 129.445 247.116 105.317C247.39 93.2531 246.229 83.165 243.59 75.2917C240.954 67.4264 236.865 61.831 231.313 58.6255C225.761 55.4199 218.871 54.6768 210.741 56.3264C202.603 57.9776 193.286 62.016 182.975 68.2858C162.354 80.825 137.939 102.177 111.305 130.702C58.0488 187.74 -3.92665 273.291 -61.9766 373.837C-120.027 474.382 -163.128 570.83 -185.896 645.471C-197.283 682.799 -203.567 714.619 -204.116 738.747C-204.39 750.811 -203.229 760.899 -200.59 768.773C-197.954 776.638 -193.865 782.233 -188.313 785.439Z" stroke="#2B2C3B" stroke-width="2"/>
<path opacity="0.206897" d="M-155.842 805.701C-150.031 808.41 -143.103 808.55 -135.148 806.198C-127.184 803.844 -118.255 799.009 -108.53 791.864C-89.0802 777.576 -66.619 754.177 -42.5726 723.439C5.51019 661.976 59.7935 571.349 108.859 466.127C157.925 360.905 192.457 261.067 208.633 184.726C216.723 146.548 220.21 114.301 218.654 90.2173C217.876 78.1749 215.84 68.2265 212.524 60.6132C209.213 53.0075 204.652 47.7898 198.842 45.0803C193.031 42.3708 186.103 42.2311 178.148 44.583C170.185 46.9372 161.255 51.7722 151.53 58.9168C132.08 73.2055 109.619 96.6043 85.5727 127.342C37.4899 188.805 -16.7934 279.432 -65.8594 384.654C-114.925 489.876 -149.457 589.714 -165.633 666.055C-173.723 704.233 -177.21 736.48 -175.654 760.564C-174.876 772.606 -172.84 782.555 -169.524 790.168C-166.213 797.774 -161.652 802.991 -155.842 805.701Z" stroke="#2B2C3B" stroke-width="2"/>
<path opacity="0.241379" d="M-122.021 823.069C-115.996 825.262 -109.082 824.797 -101.362 821.761C-93.6344 818.722 -85.1602 813.127 -76.0947 805.162C-57.9646 789.233 -37.6283 763.965 -16.3523 731.249C26.1907 665.829 72.3687 570.816 112.077 461.717C151.786 352.619 177.485 250.152 186.946 172.692C191.677 133.953 192.34 101.526 188.691 77.6691C186.866 65.7403 183.971 56.0072 180.005 48.7118C176.043 41.4237 171.045 36.6233 165.02 34.4306C158.996 32.2378 152.082 32.7025 144.362 35.7387C136.634 38.778 128.16 44.3729 119.094 52.338C100.964 68.2674 80.628 93.5348 59.352 126.251C16.8091 191.671 -29.369 286.684 -69.0775 395.783C-108.786 504.881 -134.485 607.348 -143.946 684.808C-148.678 723.547 -149.341 755.974 -145.691 779.831C-143.867 791.76 -140.971 801.493 -137.005 808.788C-133.043 816.076 -128.045 820.877 -122.021 823.069Z" stroke="#2B2C3B" stroke-width="2"/>
<path opacity="0.275862" d="M-87.1073 837.434C-80.9146 839.093 -74.0671 838.028 -66.6413 834.33C-59.208 830.629 -51.2536 824.317 -42.9169 815.592C-26.2441 798.143 -8.18733 771.199 10.1562 736.753C46.8356 667.874 84.557 569.198 114.606 457.054C144.655 344.91 161.325 240.593 163.999 162.603C165.337 123.599 163.171 91.2372 157.456 67.7896C154.599 56.0652 150.866 46.6215 146.279 39.6995C141.697 32.7845 136.3 28.438 130.107 26.7786C123.914 25.1193 117.067 26.1848 109.641 29.8823C102.208 33.5836 94.2534 39.8958 85.9166 48.6206C69.2438 66.0695 51.1871 93.0132 32.8435 127.46C-3.83589 196.338 -41.5573 295.015 -71.6061 407.159C-101.655 519.302 -118.326 623.62 -121 701.61C-122.337 740.613 -120.171 772.975 -114.456 796.423C-111.599 808.147 -107.866 817.591 -103.28 824.513C-98.6974 831.428 -93.3 835.774 -87.1073 837.434Z" stroke="#2B2C3B" stroke-width="2"/>
<path opacity="0.310345" d="M-51.3672 848.715C-45.0535 849.829 -38.3249 848.17 -31.2496 843.84C-24.1672 839.505 -16.7932 832.523 -9.2486 823.105C5.83997 804.269 21.4797 775.854 36.7513 739.94C67.2879 668.127 96.2656 566.538 116.426 452.202C136.587 337.866 144.102 232.493 139.968 154.567C137.901 115.595 132.923 83.5451 125.187 60.6847C121.318 49.2541 116.777 40.1716 111.604 33.6757C106.437 27.1864 100.681 23.3268 94.3673 22.2135C88.0536 21.1002 81.325 22.7585 74.2497 27.0891C67.1673 31.4241 59.7933 38.4056 52.2487 47.8238C37.1601 66.6595 21.5204 95.0744 6.24883 130.988C-24.2878 202.802 -53.2655 304.39 -73.426 418.726C-93.5865 533.062 -101.102 638.436 -96.9683 716.362C-94.9011 755.333 -89.923 787.384 -82.1866 810.244C-78.3182 821.675 -73.7767 830.757 -68.6041 837.253C-63.4366 843.742 -57.681 847.602 -51.3672 848.715Z" stroke="#2B2C3B" stroke-width="2"/>
<path opacity="0.344828" d="M-15.0727 856.852C-8.68594 857.411 -2.12747 855.172 4.54344 850.241C11.2211 845.306 17.9586 837.708 24.6536 827.668C38.0431 807.589 51.1468 777.919 63.2301 740.811C87.3917 666.609 107.405 562.882 117.524 447.224C127.643 331.565 125.945 225.938 115.036 148.669C109.58 110.026 101.827 78.5313 92.128 56.4322C87.2781 45.3822 81.9623 36.7301 76.2432 30.7098C70.5298 24.6955 64.4597 21.3522 58.0729 20.7935C51.6862 20.2347 45.1277 22.4731 38.4568 27.4039C31.7791 32.3397 25.0417 39.9372 18.3467 49.9772C4.95715 70.0562 -8.14657 99.7261 -20.2299 136.835C-44.3914 211.036 -64.4047 314.764 -74.5235 430.422C-84.6423 546.08 -82.9451 651.707 -72.0356 728.976C-66.5797 767.619 -58.8271 799.114 -49.1277 821.213C-44.2778 832.263 -38.962 840.915 -33.2429 846.935C-27.5296 852.95 -21.4594 856.293 -15.0727 856.852Z" stroke="#2B2C3B" stroke-width="2"/>
<path opacity="0.37931" d="M21.5002 861.808C27.9113 861.808 34.2497 859.007 40.4655 853.513C46.6876 848.014 52.7372 839.858 58.5318 829.273C70.1203 808.103 80.5883 777.404 89.3914 739.384C106.994 663.359 117.891 558.282 117.891 442.182C117.891 326.082 106.994 221.005 89.3914 144.98C80.5883 106.96 70.1203 76.2608 58.5318 55.0912C52.7372 44.5059 46.6876 36.3501 40.4655 30.8511C34.2497 25.3576 27.9113 22.5562 21.5002 22.5562C15.089 22.5562 8.75061 25.3576 2.53484 30.8511C-3.68724 36.3501 -9.73688 44.5059 -15.5314 55.0912C-27.12 76.2608 -37.5879 106.96 -46.391 144.98C-63.9936 221.005 -74.8903 326.082 -74.8903 442.182C-74.8903 558.282 -63.9936 663.359 -46.391 739.384C-37.5879 777.404 -27.12 808.103 -15.5314 829.273C-9.73688 839.858 -3.68724 848.014 2.53484 853.513C8.75061 859.007 15.089 861.808 21.5002 861.808Z" stroke="#2B2C3B" stroke-width="2"/>
<path opacity="0.413793" d="M58.0731 863.57C64.4598 863.012 70.5299 859.668 76.2433 853.654C81.9624 847.634 87.2782 838.982 92.1281 827.932C101.828 805.833 109.58 774.338 115.036 735.695C125.946 658.426 127.643 552.798 117.524 437.14C107.405 321.482 87.3918 217.755 63.2303 143.553C51.1469 106.445 38.0432 76.7749 24.6537 56.6959C17.9587 46.6559 11.2212 39.0584 4.54356 34.1226C-2.12736 29.1918 -8.68583 26.9534 -15.0726 27.5121C-21.4593 28.0709 -27.5295 31.4142 -33.2428 37.4285C-38.9619 43.4488 -44.2777 52.1009 -49.1276 63.1509C-58.827 85.25 -66.5796 116.745 -72.0355 155.387C-82.945 232.657 -84.6422 338.284 -74.5234 453.942C-64.4046 569.6 -44.3913 673.328 -20.2298 747.529C-8.14646 784.638 4.95726 814.308 18.3468 834.387C25.0418 844.427 31.7793 852.024 38.4569 856.96C45.1278 861.891 51.6863 864.129 58.0731 863.57Z" stroke="#2B2C3B" stroke-width="2"/>
<path opacity="0.448276" d="M94.3677 862.151C100.681 861.037 106.437 857.178 111.604 850.689C116.777 844.193 121.319 835.11 125.187 823.68C132.923 800.819 137.902 768.769 139.969 729.797C144.102 651.871 136.587 546.498 116.426 432.162C96.2659 317.826 67.2883 216.237 36.7516 144.424C21.4801 108.51 5.8403 80.0949 -9.24827 61.2592C-16.7929 51.841 -24.1669 44.8596 -31.2493 40.5246C-38.3246 36.1939 -45.0532 34.5357 -51.3669 35.6489C-57.6807 36.7622 -63.4363 40.6218 -68.6037 47.1111C-73.7764 53.6071 -78.3179 62.6895 -82.1862 74.1202C-89.9227 96.9805 -94.9008 129.031 -96.968 168.002C-101.102 245.929 -93.5862 351.302 -73.4257 465.638C-53.2651 579.974 -24.2875 681.563 6.24916 753.376C21.5207 789.29 37.1605 817.705 52.249 836.54C59.7936 845.959 67.1676 852.94 74.2501 857.275C81.3253 861.606 88.0539 863.264 94.3677 862.151Z" stroke="#2B2C3B" stroke-width="2"/>
<path opacity="0.482759" d="M130.107 857.584C136.3 855.925 141.697 851.578 146.28 844.663C150.866 837.741 154.599 828.298 157.456 816.573C163.171 793.126 165.337 760.763 164 721.76C161.326 643.77 144.655 539.453 114.606 427.309C84.5574 315.165 46.836 216.488 10.1566 147.61C-8.18698 113.164 -26.2437 86.2199 -42.9165 68.771C-51.2533 60.0462 -59.2077 53.734 -66.641 50.0327C-74.0668 46.3352 -80.9143 45.2697 -87.107 46.929C-93.2997 48.5884 -98.697 52.9349 -103.279 59.8499C-107.866 66.7719 -111.599 76.2157 -114.456 87.94C-120.171 111.388 -122.336 143.75 -120.999 182.753C-118.325 260.743 -101.655 365.06 -71.6058 477.204C-41.5569 589.348 -3.83554 688.025 32.8439 756.903C51.1874 791.35 69.2442 818.293 85.917 835.742C94.2537 844.467 102.208 850.779 109.641 854.48C117.067 858.178 123.915 859.243 130.107 857.584Z" stroke="#2B2C3B" stroke-width="2"/>
<path opacity="0.517241" d="M165.021 849.935C171.045 847.742 176.043 842.942 180.005 835.654C183.971 828.358 186.867 818.625 188.691 806.696C192.341 782.84 191.678 750.412 186.946 711.674C177.485 634.213 151.786 531.746 112.078 422.648C72.3691 313.55 26.191 218.536 -16.3519 153.117C-37.6279 120.4 -57.9642 95.1329 -76.0944 79.2035C-85.1598 71.2384 -93.6341 65.6435 -101.362 62.6042C-109.081 59.568 -115.996 59.1034 -122.02 61.2961C-128.045 63.4888 -133.043 68.2892 -137.005 75.5773C-140.971 82.8727 -143.866 92.6059 -145.691 104.535C-149.34 128.391 -148.677 160.819 -143.946 199.557C-134.485 277.018 -108.786 379.485 -69.0772 488.583C-29.3687 597.681 16.8094 692.695 59.3524 758.114C80.6284 790.831 100.965 816.098 119.095 832.028C128.16 839.993 136.635 845.587 144.362 848.627C152.082 851.663 158.996 852.128 165.021 849.935Z" stroke="#2B2C3B" stroke-width="2"/>
<path opacity="0.551724" d="M198.841 839.283C204.652 836.574 209.213 831.356 212.524 823.75C215.839 816.137 217.875 806.189 218.654 794.146C220.21 770.063 216.723 737.816 208.633 699.637C192.457 623.296 157.925 523.459 108.859 418.237C59.7934 313.014 5.51004 222.387 -42.5727 160.925C-66.6192 130.187 -89.0803 106.788 -108.53 92.4993C-118.255 85.3547 -127.185 80.5196 -135.148 78.1654C-143.103 75.8136 -150.031 75.9533 -155.842 78.6627C-161.652 81.3722 -166.213 86.59 -169.525 94.1956C-172.84 101.809 -174.876 111.757 -175.654 123.8C-177.21 147.883 -173.723 180.13 -165.633 218.309C-149.457 294.65 -114.925 394.487 -65.8595 499.709C-16.7936 604.932 37.4898 695.559 85.5725 757.021C109.619 787.759 132.08 811.158 151.53 825.447C161.255 832.591 170.184 837.426 178.147 839.781C186.102 842.132 193.031 841.993 198.841 839.283Z" stroke="#2B2C3B" stroke-width="2"/>
<path opacity="0.586207" d="M231.313 825.738C236.865 822.533 240.954 816.937 243.59 809.072C246.229 801.199 247.39 791.111 247.116 779.046C246.567 754.919 240.283 723.099 228.897 685.77C206.129 611.13 163.027 514.682 104.977 414.136C46.9268 313.591 -15.0487 228.04 -68.3053 171.002C-94.9392 142.477 -119.354 121.124 -139.975 108.585C-150.286 102.315 -159.603 98.2771 -167.741 96.6258C-175.871 94.9763 -182.761 95.7193 -188.313 98.9249C-193.865 102.13 -197.954 107.726 -200.59 115.591C-203.229 123.464 -204.39 133.552 -204.116 145.617C-203.567 169.745 -197.283 201.565 -185.896 238.893C-163.128 313.533 -120.026 409.981 -61.9764 510.527C-3.92646 611.072 58.049 696.624 111.306 753.662C137.94 782.187 162.355 803.539 182.975 816.078C193.286 822.348 202.603 826.386 210.741 828.037C218.871 829.687 225.761 828.944 231.313 825.738Z" stroke="#2B2C3B" stroke-width="2"/>
<path opacity="0.62069" d="M262.187 809.427C267.439 805.749 271.024 799.819 272.965 791.754C274.908 783.68 275.185 773.53 273.861 761.535C271.211 737.547 262.178 706.396 247.581 670.202C218.394 597.83 167.05 505.505 100.458 410.402C33.8661 315.299 -35.3297 235.474 -93.3549 183.295C-122.374 157.2 -148.557 138.057 -170.192 127.363C-181.01 122.015 -190.643 118.804 -198.894 117.869C-207.137 116.934 -213.936 118.275 -219.188 121.952C-224.439 125.629 -228.025 131.56 -229.965 139.625C-231.908 147.698 -232.186 157.849 -230.861 169.843C-228.211 193.831 -219.178 224.983 -204.581 261.177C-175.394 333.549 -124.051 425.873 -57.4585 520.977C9.13363 616.08 78.3295 695.904 136.355 748.084C165.373 774.179 191.556 793.322 213.192 804.016C224.01 809.363 233.643 812.574 241.894 813.51C250.137 814.445 256.936 813.104 262.187 809.427Z" stroke="#2B2C3B" stroke-width="2"/>
<path opacity="0.655172" d="M291.23 790.501C296.142 786.38 299.196 780.159 300.427 771.956C301.659 763.744 301.05 753.608 298.685 741.774C293.955 718.108 282.241 687.863 264.545 653.079C229.162 583.526 169.967 496.028 95.3394 407.09C20.7118 318.152 -55.1779 244.663 -117.53 197.739C-148.713 174.272 -176.464 157.484 -198.949 148.716C-210.192 144.332 -220.069 141.973 -228.37 141.76C-236.663 141.547 -243.319 143.476 -248.23 147.597C-253.142 151.718 -256.196 157.938 -257.427 166.142C-258.658 174.353 -258.05 184.49 -255.685 196.323C-250.955 219.989 -239.241 250.235 -221.545 285.018C-186.162 354.571 -126.967 442.07 -52.3393 531.007C22.2883 619.945 98.178 693.435 160.53 740.358C191.713 763.825 219.465 780.613 241.949 789.381C253.192 793.765 263.069 796.124 271.37 796.337C279.663 796.55 286.319 794.622 291.23 790.501Z" stroke="#2B2C3B" stroke-width="2"/>
<path opacity="0.689655" d="M318.22 769.127C322.754 764.594 325.255 758.131 325.766 749.851C326.277 741.563 324.788 731.518 321.4 719.936C314.625 696.772 300.32 667.663 279.66 634.554C238.349 568.349 171.753 486.343 89.6584 404.248C7.56337 322.153 -74.4426 255.557 -140.647 214.247C-173.756 193.587 -202.866 179.282 -226.029 172.507C-237.612 169.119 -247.656 167.63 -255.944 168.141C-264.224 168.652 -270.687 171.153 -275.22 175.686C-279.754 180.22 -282.255 186.682 -282.765 194.962C-283.277 203.25 -281.787 213.295 -278.4 224.877C-271.625 248.041 -257.319 277.15 -236.66 310.259C-195.349 376.464 -128.753 458.47 -46.6583 540.565C35.4368 622.66 117.443 689.256 183.647 730.566C216.756 751.226 245.866 765.532 269.029 772.306C280.612 775.694 290.656 777.183 298.945 776.672C307.224 776.161 313.687 773.66 318.22 769.127Z" stroke="#2B2C3B" stroke-width="2"/>
<path opacity="0.724138" d="M342.952 745.495C347.073 740.584 349.002 733.928 348.789 725.635C348.576 717.334 346.217 707.457 341.833 696.214C333.065 673.729 316.277 645.977 292.81 614.795C245.886 552.443 172.397 476.553 83.4589 401.925C-5.47879 327.298 -92.9769 268.103 -162.53 232.719C-197.314 215.024 -227.559 203.31 -251.225 198.58C-263.058 196.214 -273.195 195.606 -281.407 196.838C-289.61 198.068 -295.831 201.123 -299.952 206.034C-304.073 210.946 -306.001 217.602 -305.788 225.895C-305.575 234.196 -303.216 244.072 -298.832 255.315C-290.064 277.8 -273.276 305.552 -249.809 336.735C-202.886 399.087 -129.396 474.977 -40.4583 549.604C48.4794 624.232 135.978 683.427 205.531 718.81C240.314 736.506 270.56 748.22 294.226 752.95C306.059 755.315 316.196 755.923 324.407 754.692C332.611 753.461 338.831 750.406 342.952 745.495Z" stroke="#2B2C3B" stroke-width="2"/>
<path opacity="0.758621" d="M365.238 719.811C368.915 714.559 370.256 707.76 369.321 699.518C368.385 691.267 365.174 681.633 359.827 670.815C349.133 649.18 329.99 622.997 303.894 593.978C251.715 535.953 171.891 466.757 76.7874 400.165C-18.3161 333.573 -110.64 282.229 -183.013 253.042C-219.206 238.446 -250.358 229.412 -274.346 226.763C-286.34 225.438 -296.491 225.715 -304.564 227.658C-312.63 229.599 -318.56 233.184 -322.237 238.436C-325.915 243.688 -327.255 250.487 -326.321 258.729C-325.385 266.98 -322.174 276.614 -316.827 287.432C-306.132 309.067 -286.989 335.25 -260.894 364.269C-208.715 422.294 -128.891 491.49 -33.7872 558.082C61.3163 624.674 153.641 676.018 226.013 705.205C262.207 719.801 293.358 728.835 317.346 731.484C329.341 732.809 339.491 732.531 347.565 730.589C355.63 728.648 361.56 725.063 365.238 719.811Z" stroke="#2B2C3B" stroke-width="2"/>
<path opacity="0.793103" d="M384.907 692.295C388.112 686.742 388.855 679.852 387.206 671.723C385.555 663.585 381.516 654.268 375.246 643.957C362.707 623.336 341.355 598.921 312.83 572.287C255.792 519.03 170.241 457.055 69.6953 399.005C-30.8502 340.955 -127.298 297.853 -201.939 275.085C-239.267 263.699 -271.087 257.415 -295.215 256.866C-307.279 256.591 -317.367 257.753 -325.24 260.392C-333.106 263.028 -338.701 267.116 -341.907 272.669C-345.112 278.221 -345.855 285.111 -344.206 293.241C-342.554 301.378 -338.516 310.696 -332.246 321.006C-319.707 341.627 -298.355 366.042 -269.83 392.676C-212.792 445.933 -127.241 507.908 -26.6951 565.958C73.8503 624.008 170.298 667.11 244.939 689.878C282.267 701.264 314.087 707.548 338.215 708.097C350.279 708.372 360.367 707.21 368.241 704.572C376.106 701.935 381.701 697.847 384.907 692.295Z" stroke="#2B2C3B" stroke-width="2"/>
<path opacity="0.827586" d="M401.81 663.182C404.52 657.371 404.66 650.443 402.308 642.488C399.953 634.525 395.118 625.595 387.974 615.87C373.685 596.421 350.286 573.959 319.549 549.913C258.086 501.83 167.459 447.547 62.2364 398.481C-42.9858 349.415 -142.823 314.883 -219.164 298.707C-257.343 290.617 -289.589 287.13 -313.673 288.687C-325.716 289.465 -335.664 291.501 -343.277 294.816C-350.883 298.128 -356.101 302.688 -358.81 308.499C-361.52 314.309 -361.659 321.238 -359.308 329.193C-356.953 337.156 -352.118 346.085 -344.974 355.811C-330.685 375.26 -307.286 397.721 -276.548 421.768C-215.086 469.85 -124.459 524.134 -19.2363 573.2C85.9859 622.266 185.823 656.797 262.164 672.974C300.343 681.063 332.59 684.55 356.673 682.994C368.716 682.216 378.664 680.18 386.277 676.865C393.883 673.553 399.101 668.992 401.81 663.182Z" stroke="#2B2C3B" stroke-width="2"/>
<path opacity="0.862069" d="M415.819 632.719C418.012 626.694 417.547 619.78 414.511 612.06C411.472 604.332 405.877 595.858 397.912 586.793C381.982 568.663 356.715 548.326 323.998 527.05C258.579 484.507 163.565 438.329 54.4672 398.621C-54.631 358.912 -157.098 333.213 -234.559 323.752C-273.297 319.021 -305.725 318.358 -329.581 322.007C-341.51 323.832 -351.243 326.727 -358.538 330.693C-365.827 334.655 -370.627 339.653 -372.82 345.678C-375.012 351.702 -374.548 358.616 -371.512 366.336C-368.472 374.064 -362.877 382.538 -354.912 391.604C-338.983 409.734 -313.715 430.07 -280.999 451.346C-215.579 493.889 -120.566 540.067 -11.4677 579.776C97.6305 619.484 200.098 645.183 277.558 654.644C316.296 659.376 348.724 660.039 372.581 656.389C384.509 654.565 394.242 651.669 401.538 647.703C408.826 643.741 413.626 638.743 415.819 632.719Z" stroke="#2B2C3B" stroke-width="2"/>
<path opacity="0.896552" d="M426.828 601.164C428.487 594.971 427.421 588.123 423.724 580.698C420.023 573.264 413.71 565.31 404.986 556.973C387.537 540.3 360.593 522.244 326.147 503.9C257.268 467.221 158.592 429.499 46.4477 399.45C-65.6962 369.401 -170.013 352.731 -248.003 350.057C-287.007 348.72 -319.369 350.885 -342.817 356.6C-354.541 359.457 -363.985 363.19 -370.907 367.777C-377.822 372.359 -382.168 377.756 -383.828 383.949C-385.487 390.142 -384.421 396.989 -380.724 404.415C-377.023 411.848 -370.71 419.803 -361.986 428.14C-344.537 444.812 -317.593 462.869 -283.147 481.213C-214.268 517.892 -115.592 555.613 -3.4477 585.662C108.696 615.711 213.013 632.382 291.003 635.056C330.007 636.393 362.369 634.227 385.817 628.513C397.541 625.655 406.985 621.923 413.907 617.336C420.822 612.754 425.168 607.356 426.828 601.164Z" stroke="#2B2C3B" stroke-width="2"/>
<path opacity="0.931035" d="M434.751 568.782C435.864 562.468 434.206 555.74 429.875 548.665C425.54 541.582 418.559 534.208 409.141 526.664C390.305 511.575 361.89 495.935 325.976 480.664C254.163 450.127 152.574 421.149 38.2381 400.989C-76.098 380.828 -181.471 373.313 -259.398 377.447C-298.369 379.514 -330.419 384.492 -353.28 392.228C-364.71 396.097 -373.793 400.638 -380.289 405.811C-386.778 410.978 -390.638 416.734 -391.751 423.048C-392.864 429.361 -391.206 436.09 -386.875 443.165C-382.54 450.248 -375.559 457.622 -366.141 465.166C-347.305 480.255 -318.89 495.895 -282.976 511.166C-211.163 541.703 -109.574 570.68 4.76202 590.841C119.098 611.001 224.471 618.517 302.398 614.383C341.369 612.316 373.419 607.338 396.28 599.602C407.71 595.733 416.793 591.192 423.289 586.019C429.778 580.852 433.638 575.096 434.751 568.782Z" stroke="#2B2C3B" stroke-width="2"/>
<path opacity="0.965517" d="M439.529 535.845C440.088 529.458 437.849 522.9 432.919 516.229C427.983 509.551 420.385 502.814 410.345 496.119C390.266 482.729 360.596 469.625 323.488 457.542C249.287 433.381 145.559 413.367 29.9008 403.248C-85.7573 393.13 -191.384 394.827 -268.654 405.736C-307.297 411.192 -338.792 418.945 -360.891 428.644C-371.941 433.494 -380.593 438.81 -386.613 444.529C-392.627 450.242 -395.971 456.313 -396.529 462.699C-397.088 469.086 -394.85 475.645 -389.919 482.315C-384.983 488.993 -377.386 495.731 -367.346 502.426C-347.267 515.815 -317.597 528.919 -280.488 541.002C-206.287 565.164 -102.559 585.177 13.0988 595.296C128.757 605.415 234.384 603.717 311.654 592.808C350.297 587.352 381.791 579.599 403.89 569.9C414.94 565.05 423.592 559.734 429.613 554.015C435.627 548.302 438.97 542.232 439.529 535.845Z" stroke="#2B2C3B" stroke-width="2"/>
<path d="M441.126 502.631C441.126 496.22 438.325 489.881 432.831 483.666C427.332 477.444 419.176 471.394 408.591 465.599C387.422 454.011 356.722 443.543 318.702 434.74C242.677 417.137 137.6 406.241 21.5002 406.241C-94.5997 406.241 -199.677 417.137 -275.702 434.74C-313.722 443.543 -344.421 454.011 -365.591 465.599C-376.176 471.394 -384.332 477.444 -389.831 483.666C-395.324 489.881 -398.126 496.22 -398.126 502.631C-398.126 509.042 -395.324 515.381 -389.831 521.596C-384.332 527.818 -376.176 533.868 -365.591 539.663C-344.421 551.251 -313.722 561.719 -275.702 570.522C-199.677 588.125 -94.5997 599.021 21.5002 599.021C137.6 599.021 242.677 588.125 318.702 570.522C356.722 561.719 387.422 551.251 408.591 539.663C419.176 533.868 427.332 527.818 432.831 521.596C438.325 515.381 441.126 509.042 441.126 502.631Z" stroke="#2B2C3B" stroke-width="2"/>
</g>
</svg>
