<svg width="280" height="56" viewBox="0 0 280 56" fill="none" xmlns="http://www.w3.org/2000/svg">
<rect x="4" y="4" width="48" height="48" rx="24" fill="#290064"/>
<path d="M29.6667 25.75V28.1667H31.8333C32 28.1667 32.0833 28.3333 32.0833 28.5L31.75 30.0833C31.75 30.1667 31.5833 30.25 31.5 30.25H29.6667V36.3333H27.1667V30.3333H25.75C25.5833 30.3333 25.5 30.25 25.5 30.0833V28.5C25.5 28.3333 25.5833 28.25 25.75 28.25H27.1667V25.5C27.1667 24.0833 28.25 23 29.6667 23H31.9167C32.0833 23 32.1667 23.0833 32.1667 23.25V25.25C32.1667 25.4167 32.0833 25.5 31.9167 25.5H29.9167C29.75 25.5 29.6667 25.5833 29.6667 25.75Z" stroke="white" stroke-miterlimit="10" stroke-linecap="round"/>
<path d="M30.5 36.3333H25.5C21.3334 36.3333 19.6667 34.6666 19.6667 30.5V25.5C19.6667 21.3333 21.3334 19.6666 25.5 19.6666H30.5C34.6667 19.6666 36.3334 21.3333 36.3334 25.5V30.5C36.3334 34.6666 34.6667 36.3333 30.5 36.3333Z" stroke="white" stroke-linecap="round" stroke-linejoin="round"/>
<rect x="60" y="4" width="48" height="48" rx="24" fill="#290064"/>
<path d="M88.1667 34.6667H79.8334C77.3334 34.6667 75.6667 33 75.6667 30.5V25.5C75.6667 23 77.3334 21.3334 79.8334 21.3334H88.1667C90.6667 21.3334 92.3334 23 92.3334 25.5V30.5C92.3334 33 90.6667 34.6667 88.1667 34.6667Z" stroke="white" stroke-miterlimit="10" stroke-linecap="round" stroke-linejoin="round"/>
<path d="M83.5 25.9166L85.5833 27.1666C86.3333 27.6666 86.3333 28.4166 85.5833 28.9166L83.5 30.1666C82.6667 30.6666 82 30.25 82 29.3333V26.8333C82 25.75 82.6667 25.4166 83.5 25.9166Z" stroke="white" stroke-miterlimit="10" stroke-linecap="round" stroke-linejoin="round"/>
<rect x="116" y="4" width="48" height="48" rx="24" fill="#290064"/>
<path d="M145.417 21.9917C143.25 25.7834 139.075 27.9584 134.725 27.5667L132.083 27.325" stroke="white" stroke-miterlimit="10" stroke-linecap="round" stroke-linejoin="round"/>
<path d="M134.583 34.1416C136.75 30.35 140.925 28.175 145.275 28.5666L147.917 28.8083" stroke="white" stroke-miterlimit="10" stroke-linecap="round" stroke-linejoin="round"/>
<path d="M140 36.3333C144.602 36.3333 148.333 32.6023 148.333 28C148.333 23.3976 144.602 19.6666 140 19.6666C135.398 19.6666 131.667 23.3976 131.667 28C131.667 32.6023 135.398 36.3333 140 36.3333Z" stroke="white" stroke-miterlimit="10" stroke-linecap="round" stroke-linejoin="round"/>
<path d="M136.358 20.5L139.008 23.7917C140.783 25.9917 142.042 28.55 142.708 31.2917L143.717 35.45" stroke="white" stroke-miterlimit="10" stroke-linecap="round" stroke-linejoin="round"/>
<rect x="172" y="4" width="48" height="48" rx="24" fill="#290064"/>
<path d="M196 19.6666H193.25C191.667 19.6666 190.417 20.9166 190.417 22.4166C190.417 23.9166 191.667 25.1666 193.167 25.1666H196V19.6666Z" stroke="white" stroke-miterlimit="10"/>
<path d="M196 25.25H193.25C191.75 25.25 190.5 26.5 190.5 28C190.5 29.5 191.75 30.75 193.25 30.75H196V25.25Z" stroke="white" stroke-miterlimit="10"/>
<path d="M196 30.75H193.25C191.75 30.75 190.5 32 190.5 33.5C190.5 35 191.75 36.25 193.25 36.25C194.75 36.25 196 35 196 33.5V30.75Z" stroke="white" stroke-miterlimit="10"/>
<path d="M196 19.6666H198.75C200.25 19.6666 201.5 20.9166 201.5 22.4166C201.5 23.9166 200.25 25.1666 198.75 25.1666H196V19.6666Z" stroke="white" stroke-miterlimit="10"/>
<path d="M198.75 25.25C200.25 25.25 201.5 26.5 201.5 28C201.5 29.5 200.25 30.75 198.75 30.75C197.25 30.75 196 29.5 196 28C196 26.5 197.25 25.25 198.75 25.25Z" stroke="white" stroke-miterlimit="10"/>
<rect x="228" y="4" width="48" height="48" rx="24" fill="#290064"/>
<path d="M247.75 35.1666C249 35.9166 250.5 36.3333 252 36.3333C256.583 36.3333 260.333 32.5833 260.333 28C260.333 23.4166 256.583 19.6666 252 19.6666C247.417 19.6666 243.667 23.4166 243.667 28C243.667 29.5 244.083 30.9166 244.75 32.1666L244.107 34.6393C243.912 35.3882 244.606 36.065 245.35 35.8524L247.75 35.1666Z" stroke="white" stroke-miterlimit="10" stroke-linecap="round" stroke-linejoin="round"/>
<path d="M255.75 30.3737C255.75 30.5087 255.72 30.6475 255.656 30.7825C255.592 30.9175 255.51 31.045 255.401 31.165C255.217 31.3675 255.014 31.5138 254.785 31.6075C254.559 31.7013 254.315 31.75 254.052 31.75C253.669 31.75 253.26 31.66 252.828 31.4763C252.396 31.2925 251.964 31.045 251.536 30.7338C251.104 30.4188 250.695 30.07 250.304 29.6837C249.918 29.2937 249.568 28.885 249.257 28.4575C248.949 28.03 248.701 27.6025 248.52 27.1788C248.34 26.7513 248.25 26.3425 248.25 25.9525C248.25 25.6975 248.295 25.4538 248.385 25.2288C248.475 25 248.618 24.79 248.817 24.6025C249.057 24.3663 249.32 24.25 249.598 24.25C249.703 24.25 249.809 24.2725 249.902 24.3175C250 24.3625 250.087 24.43 250.154 24.5275L251.025 25.7538C251.093 25.8475 251.142 25.9338 251.176 26.0163C251.209 26.095 251.228 26.1738 251.228 26.245C251.228 26.335 251.202 26.425 251.149 26.5112C251.101 26.5975 251.029 26.6875 250.939 26.7775L250.654 27.0737C250.612 27.115 250.594 27.1638 250.594 27.2238C250.594 27.2538 250.597 27.28 250.605 27.31C250.616 27.34 250.627 27.3625 250.635 27.385C250.702 27.5087 250.819 27.67 250.984 27.865C251.153 28.06 251.333 28.2588 251.529 28.4575C251.731 28.6563 251.927 28.84 252.126 29.0087C252.321 29.1737 252.483 29.2862 252.61 29.3537C252.629 29.3612 252.652 29.3725 252.678 29.3837C252.708 29.395 252.738 29.3987 252.772 29.3987C252.836 29.3987 252.884 29.3763 252.926 29.335L253.211 29.0538C253.305 28.96 253.395 28.8887 253.482 28.8438C253.568 28.7912 253.654 28.765 253.748 28.765C253.82 28.765 253.895 28.78 253.977 28.8138C254.06 28.8475 254.146 28.8963 254.24 28.96L255.483 29.8412C255.581 29.9087 255.649 29.9875 255.69 30.0812C255.727 30.175 255.75 30.2687 255.75 30.3737Z" stroke="white" stroke-miterlimit="10"/>
</svg>
